<svg width="700pt" height="289pt" viewBox="0 0 700 289" xmlns="http://www.w3.org/2000/svg"><g id="fontsvg1720453287893" stroke-linecap="round" fill-rule="evenodd" fill="#000000"><path d="M 472.25 142.001 L 455.75 142.001 A 71.856 71.856 0 0 0 465.365 139.524 Q 470.271 137.865 474.175 135.585 A 35.402 35.402 0 0 0 478.5 132.626 Q 486.75 126.001 490.875 116.626 A 62.161 62.161 0 0 0 495.131 102.392 A 75.442 75.442 0 0 0 496 95.751 Q 497 84.251 497 71.751 L 497 32.501 Q 497 26.189 496.337 21.287 A 52.79 52.79 0 0 0 496 19.126 A 27.468 27.468 0 0 0 494.945 14.981 Q 494.186 12.78 493.083 11.03 A 15.438 15.438 0 0 0 492.375 10.001 A 14.119 14.119 0 0 0 487.374 5.872 A 18.42 18.42 0 0 0 485 4.876 A 25.764 25.764 0 0 0 481.198 3.918 Q 477.465 3.251 472.5 3.251 L 472.5 0.001 L 593 0.001 A 116.85 116.85 0 0 1 612.891 1.624 A 92.153 92.153 0 0 1 628.625 5.751 A 79.222 79.222 0 0 1 645.268 13.987 A 66.751 66.751 0 0 1 655.25 22.001 A 68.047 68.047 0 0 1 665.406 34.446 A 56.943 56.943 0 0 1 670.625 45.001 Q 675.25 57.501 675.25 70.001 L 675.25 73.626 Q 675.25 75.251 675 77.251 A 74.877 74.877 0 0 1 672.563 88.876 A 55.648 55.648 0 0 1 667.875 100.126 Q 662.5 109.751 654.375 116.876 Q 646.25 124.001 636.375 129.126 Q 626.5 134.251 615.75 138.751 L 670.75 254.501 A 84.272 84.272 0 0 0 674.172 261.321 A 96.364 96.364 0 0 0 675.5 263.626 Q 678.25 268.251 681.875 272.001 Q 685.5 275.751 689.875 278.126 A 19.811 19.811 0 0 0 699.336 280.5 A 23.13 23.13 0 0 0 699.5 280.501 L 699.5 283.751 L 605 283.751 L 604.75 280.501 L 645.25 280.501 Q 635.75 276.251 630.125 268.001 Q 624.5 259.751 620.25 251.251 L 575.25 158.251 Q 570 161.751 565.25 165.626 Q 560.5 169.501 556.25 174.251 Q 551.5 180.001 548.25 186.751 Q 545 193.501 543 200.626 Q 541 207.751 540.125 214.751 A 114.601 114.601 0 0 0 539.373 223.208 A 95.546 95.546 0 0 0 539.25 228.001 A 58.422 58.422 0 0 0 539.262 229.073 Q 539.305 231.341 539.5 236.126 A 52.112 52.112 0 0 0 539.908 240.706 Q 540.216 243.068 540.739 245.767 A 124.751 124.751 0 0 0 542 251.501 A 36.774 36.774 0 0 0 547.444 263.863 A 33.427 33.427 0 0 0 557.25 273.126 Q 569 280.501 583.75 280.501 L 583.75 283.751 L 472.5 283.751 L 472.5 280.501 Q 480.25 280.251 485.125 278.626 A 17.685 17.685 0 0 0 488.96 276.845 A 13.519 13.519 0 0 0 492.625 273.501 A 17.181 17.181 0 0 0 494.999 269.041 Q 495.712 267.083 496.1 264.775 A 29.07 29.07 0 0 0 496.125 264.626 A 58.91 58.91 0 0 0 496.658 260.226 Q 496.861 257.866 496.944 255.144 A 128.743 128.743 0 0 0 497 251.251 L 497 171.251 Q 497 165.126 496.414 160.393 A 53.151 53.151 0 0 0 496 157.626 Q 495.112 152.628 492.842 149.308 A 15.094 15.094 0 0 0 492.25 148.501 Q 489.5 145.001 484.75 143.501 A 27.534 27.534 0 0 0 480.948 142.617 Q 477.215 142.001 472.25 142.001 Z M 283.5 288.001 L 283.5 199.001 L 286.75 199.001 Q 286.75 216.751 287.25 232.376 A 107.216 107.216 0 0 0 288.405 245.282 Q 289.609 253.087 292 259.626 A 39.391 39.391 0 0 0 299.481 272.387 A 36.932 36.932 0 0 0 305.75 278.001 A 32.005 32.005 0 0 0 314.83 282.371 Q 319.123 283.71 324.335 284.296 A 77.754 77.754 0 0 0 333 284.751 Q 349.75 284.751 358.25 278.001 A 34.597 34.597 0 0 0 368.622 264.147 A 44.059 44.059 0 0 0 370.25 259.626 A 79.786 79.786 0 0 0 372.79 247.849 Q 373.809 240.677 373.875 232.376 A 3800.567 3800.567 0 0 0 373.969 216.22 A 4600.747 4600.747 0 0 0 374 199.001 L 374 142.001 L 304.25 142.001 Q 318.25 140.251 330.875 135.376 Q 343.5 130.501 353.125 121.501 A 61.684 61.684 0 0 0 365.697 104.741 A 74.525 74.525 0 0 0 368.375 99.001 A 68.924 68.924 0 0 0 372.504 84.632 Q 374 76.298 374 66.501 L 374 32.501 Q 374 26.567 373.414 21.953 A 51.147 51.147 0 0 0 373 19.251 A 25.55 25.55 0 0 0 371.79 14.797 A 18.449 18.449 0 0 0 369.25 10.126 Q 366.5 6.501 361.75 4.876 A 25.764 25.764 0 0 0 357.948 3.918 Q 354.215 3.251 349.25 3.251 L 323.25 3.251 L 323.25 0.001 L 446.75 0.001 L 446.75 3.251 A 46.122 46.122 0 0 0 440.086 3.696 Q 431.948 4.889 428.012 9.274 A 13.099 13.099 0 0 0 427.125 10.376 A 22.489 22.489 0 0 0 424.116 16.475 Q 422.211 22.226 422.021 30.613 A 83.465 83.465 0 0 0 422 32.501 L 422 79.251 A 56.348 56.348 0 0 1 420.004 94.471 A 49.148 49.148 0 0 1 416.625 103.251 Q 411.25 114.001 401.875 121.626 A 69.216 69.216 0 0 1 385.429 131.477 A 82.197 82.197 0 0 1 379.875 133.626 A 96.322 96.322 0 0 1 355.658 138.578 A 108.391 108.391 0 0 1 353 138.751 L 445 138.751 A 51.653 51.653 0 0 0 440.455 139.108 Q 438.212 139.391 436.313 139.873 A 23.862 23.862 0 0 0 433.875 140.626 A 17.825 17.825 0 0 0 430.185 142.479 A 13.933 13.933 0 0 0 427 145.376 A 16.103 16.103 0 0 0 424.901 148.873 Q 424.162 150.522 423.646 152.495 A 29.461 29.461 0 0 0 423.375 153.626 A 52.063 52.063 0 0 0 422.605 158.141 Q 422.32 160.363 422.155 162.878 A 100.706 100.706 0 0 0 422 166.001 L 422 202.001 Q 422 221.501 414.875 237.376 Q 407.75 253.251 395.625 264.501 Q 383.5 275.751 367.25 281.876 Q 351 288.001 333 288.001 L 283.5 288.001 Z M 86.5 142.001 L 0 142.001 Q 8.75 139.751 16.25 134.876 A 44.865 44.865 0 0 0 26.445 125.665 A 54.293 54.293 0 0 0 29.375 121.751 Q 34.648 114.017 37.725 102.767 A 91.473 91.473 0 0 0 38.125 101.251 A 91.902 91.902 0 0 0 40.206 90.025 Q 41.25 81.724 41.25 71.751 L 41.25 32.501 Q 41.25 26.189 40.587 21.287 A 52.79 52.79 0 0 0 40.25 19.126 A 27.468 27.468 0 0 0 39.195 14.981 Q 38.436 12.78 37.333 11.03 A 15.438 15.438 0 0 0 36.625 10.001 A 14.119 14.119 0 0 0 31.624 5.872 A 18.42 18.42 0 0 0 29.25 4.876 A 25.764 25.764 0 0 0 25.448 3.918 Q 21.715 3.251 16.75 3.251 L 16.75 0.001 L 128.75 0.001 A 168.031 168.031 0 0 1 162.531 4.088 A 138.366 138.366 0 0 1 186.125 11.751 A 132.098 132.098 0 0 1 222.428 34.634 A 123.711 123.711 0 0 1 229.75 41.751 A 130.438 130.438 0 0 1 257.072 85.819 A 148.317 148.317 0 0 1 257.375 86.626 A 155.374 155.374 0 0 1 266.647 131.331 A 182.654 182.654 0 0 1 267 142.751 A 170.075 170.075 0 0 1 263.454 178.108 A 142.269 142.269 0 0 1 256.875 200.251 Q 246.75 226.251 228.75 244.876 Q 210.75 263.501 185.875 273.626 A 139.012 139.012 0 0 1 141.23 283.478 A 163.086 163.086 0 0 1 131.75 283.751 L 16.75 283.751 L 16.75 280.501 Q 24.5 280.251 29.375 278.626 A 17.685 17.685 0 0 0 33.21 276.845 A 13.519 13.519 0 0 0 36.875 273.501 A 17.181 17.181 0 0 0 39.249 269.041 Q 39.962 267.083 40.35 264.775 A 29.07 29.07 0 0 0 40.375 264.626 A 58.91 58.91 0 0 0 40.908 260.226 Q 41.111 257.866 41.194 255.144 A 128.743 128.743 0 0 0 41.25 251.251 L 41.25 192.001 A 52.726 52.726 0 0 1 42.034 182.667 Q 43.036 177.094 45.321 172.533 A 32.109 32.109 0 0 1 46 171.251 A 53.5 53.5 0 0 1 54.519 159.774 A 48.779 48.779 0 0 1 57.625 156.876 Q 64.5 151.001 72.375 147.501 Q 79.143 144.493 84.71 142.593 A 98.353 98.353 0 0 1 86.5 142.001 Z M 43 138.751 L 154.5 138.751 A 37.152 37.152 0 0 0 151.768 138.861 Q 148.508 139.103 144.125 139.876 A 67.169 67.169 0 0 0 136.784 141.624 A 88.151 88.151 0 0 0 130.5 143.751 A 83.839 83.839 0 0 0 120.472 148.359 A 98.929 98.929 0 0 0 115.875 151.001 Q 108.5 155.501 102.625 162.126 A 52.713 52.713 0 0 0 94.313 174.907 A 60.847 60.847 0 0 0 93.125 177.626 A 47.279 47.279 0 0 0 90.244 188.193 A 64.775 64.775 0 0 0 89.5 198.251 L 89.5 254.751 Q 89.5 262.501 90.625 267.501 A 21.14 21.14 0 0 0 91.752 271.083 Q 92.59 273.068 93.796 274.572 A 12.268 12.268 0 0 0 94.5 275.376 Q 97.25 278.251 102 279.376 Q 105.229 280.141 109.727 280.386 A 83.414 83.414 0 0 0 114.25 280.501 L 136.75 280.501 A 96.993 96.993 0 0 0 153.742 279.095 Q 166.906 276.751 176.75 270.501 A 69.307 69.307 0 0 0 200.309 245.209 A 82.76 82.76 0 0 0 201.625 242.751 A 115.487 115.487 0 0 0 209.573 222.618 Q 212.429 212.948 214.15 201.861 A 190.237 190.237 0 0 0 214.375 200.376 A 333.672 333.672 0 0 0 217.306 171.209 A 425.19 425.19 0 0 0 218 146.501 Q 218 114.251 214.25 87.626 A 148.611 148.611 0 0 0 209.169 64.431 A 108.711 108.711 0 0 0 199.5 42.001 Q 188.25 23.251 168.375 13.251 A 85.131 85.131 0 0 0 149.001 6.459 Q 139.78 4.354 128.988 3.63 A 175.544 175.544 0 0 0 117.25 3.251 L 114.25 3.251 Q 106.75 3.251 101.875 4.751 A 19.882 19.882 0 0 0 98.14 6.306 A 14.274 14.274 0 0 0 94.25 9.376 A 15.083 15.083 0 0 0 91.628 13.682 A 20.963 20.963 0 0 0 90.5 17.501 Q 89.5 22.501 89.5 29.251 L 89.5 80.751 A 85.164 85.164 0 0 1 88.852 91.569 Q 87.84 99.456 85.25 105.626 Q 81 115.751 74.25 122.376 Q 67.5 129.001 59.25 132.751 A 117.484 117.484 0 0 1 47.016 137.532 A 103.392 103.392 0 0 1 43 138.751 Z M 498.75 138.751 L 546.75 138.751 Q 533.75 167.501 526.625 197.126 Q 519.5 226.751 517.25 258.501 A 193.768 193.768 0 0 1 520.073 240.353 Q 522.078 230.677 525 222.376 Q 530.5 206.751 538.125 194.376 A 153.519 153.519 0 0 1 550.336 177.22 A 135.816 135.816 0 0 1 554.75 172.126 Q 563.75 162.251 573 153.251 Q 581.75 144.751 590.25 136.501 Q 598.75 128.251 605.625 119.001 A 100.766 100.766 0 0 0 617.25 98.751 A 77.862 77.862 0 0 0 621.745 84.631 A 99.858 99.858 0 0 0 623.5 73.751 A 151.415 151.415 0 0 0 623.719 71.095 A 121.053 121.053 0 0 0 623.875 68.626 A 87.706 87.706 0 0 0 623.969 66.157 A 109.035 109.035 0 0 0 624 63.501 A 83.845 83.845 0 0 0 623.469 54.313 A 113.726 113.726 0 0 0 621.875 44.251 A 61.243 61.243 0 0 0 614.841 25.836 A 69.795 69.795 0 0 0 613.75 24.001 Q 607.5 14.501 597.75 8.876 A 42.032 42.032 0 0 0 581.531 3.614 A 53.074 53.074 0 0 0 575.25 3.251 L 570 3.251 Q 562.5 3.251 557.625 4.751 A 19.882 19.882 0 0 0 553.89 6.306 A 14.274 14.274 0 0 0 550 9.376 A 15.083 15.083 0 0 0 547.378 13.682 A 20.963 20.963 0 0 0 546.25 17.501 Q 545.25 22.501 545.25 29.251 L 545.25 80.751 A 85.164 85.164 0 0 1 544.602 91.569 Q 543.59 99.456 541 105.626 Q 536.75 115.751 530 122.376 Q 523.25 129.001 515 132.751 A 117.484 117.484 0 0 1 502.766 137.532 A 103.392 103.392 0 0 1 498.75 138.751 Z" vector-effect="non-scaling-stroke"/></g></svg>